# xmcd
# 
# Track frame offsets:
#     150
#     14188
#     27885
#     42551
#     60641
#     77330
#     92221
#     102522
#     119785
#     135963
#     150161
#     168036
#     184712
#     198844
#     216931
#     229386
#     246225
#     260699
#     277023
#     291630
#     306672
#     323571
#     340469
# 
# Disc length: 4772
# 
# Revision: 3
# Processed by: cddbd v1.5.2PL0 Copyright (c) Steve Scherf et al.
# Submitted via: fre:ac v1.0.31
# 
DISCID=5c12a217
DTITLE=Various Artist - Now That's What I Call Music! 89 [Disc 1]
DYEAR=2014
DGENRE=Pop
TTITLE0=Trainor, Meghan - All About That Bass
TTITLE1=Murs, Olly feat. Travie McCoy - Wrapped Up
TTITLE2=Jessie J, Ariana Grande and Nicki Minaj - Bang Bang
TTITLE3=Nico and Vinz - Am I Wrong
TTITLE4=MAGIC! - Rude
TTITLE5=Smith, Sam - I'm Not The Only One
TTITLE6=Odell, Tom - Real Love
TTITLE7=Gareth Malone's All Star Choir - Wake Me Up [Official BBC Children In Need Single 2014]
TTITLE8=Sheeran, Ed - Don't
TTITLE9=Ezra, George - Blame It On Me
TTITLE10=Script, The - Superheroes
TTITLE11=OneRepublic - Love Runs Out
TTITLE12=Maroon 5 - Maps
TTITLE13=Hozier - Take Me To Church
TTITLE14=Charli XCX - Boom Clap
TTITLE15=One Direction - Steal My Girl
TTITLE16=Vamps, The feat. Shawn Mendes - Oh Cecilia (Breaking My Heart)
TTITLE17=5 Seconds Of Summer - Amnesia
TTITLE18=G.R.L. - Ugly Heart
TTITLE19=Perry, Katy - This Is How We Do
TTITLE20=Cheryl feat. Tinie Tempah - Crazy Stupid Love
TTITLE21=Henderson, Ella - Glow
TTITLE22=Veronicas, The - You Ruin Me
EXTD=
EXTT0=
EXTT1=
EXTT2=
EXTT3=
EXTT4=
EXTT5=
EXTT6=
EXTT7=
EXTT8=
EXTT9=
EXTT10=
EXTT11=
EXTT12=
EXTT13=
EXTT14=
EXTT15=
EXTT16=
EXTT17=
EXTT18=
EXTT19=
EXTT20=
EXTT21=
EXTT22=
PLAYORDER=
